HIERARCHY
ROOT Hips
{
  OFFSET 5.72205e-005 65.662 3.42586
  CHANNELS 6 Xposition Yposition Zposition Zrotation Xrotation Yrotation
  JOINT Chest
  {
    OFFSET 0 8.7983 -4.7612
    CHANNELS 6 Xposition Yposition Zposition Zrotation Xrotation Yrotation
    JOINT Chest2
    {
      OFFSET 0 8.0291 0.4195
      CHANNELS 6 Xposition Yposition Zposition Zrotation Xrotation Yrotation
      JOINT Chest3
      {
        OFFSET 0 9.9351 -2.2114
        CHANNELS 6 Xposition Yposition Zposition Zrotation Xrotation Yrotation
        JOINT Neck
        {
          OFFSET 0 22.3885 -0.4656
          CHANNELS 6 Xposition Yposition Zposition Zrotation Xrotation Yrotation
          JOINT Head
          {
            OFFSET -0.0001 12.643 3.4389
            CHANNELS 6 Xposition Yposition Zposition Zrotation Xrotation Yrotation
            End Site
            {
              OFFSET 0.0001 17.6655 0.5274
            }
          }
        }
        JOINT LeftCollar
        {
          OFFSET 2.2603 21.606 7.4023
          CHANNELS 6 Xposition Yposition Zposition Zrotation Xrotation Yrotation
          JOINT LeftShoulder
          {
            OFFSET 13.5163 -1.1332 -5.0146
            CHANNELS 6 Xposition Yposition Zposition Zrotation Xrotation Yrotation
            JOINT LeftElbow
            {
              OFFSET -0.0995 -28.05 -0.2431
              CHANNELS 6 Xposition Yposition Zposition Zrotation Xrotation Yrotation
              JOINT LeftWrist
              {
                OFFSET 0.0679 -23.3996 -0.1402
                CHANNELS 6 Xposition Yposition Zposition Zrotation Xrotation Yrotation
                JOINT LeftFinger1
                {
                  OFFSET 0.7932 -9.069 2.5189
                  CHANNELS 6 Xposition Yposition Zposition Zrotation Xrotation Yrotation
                  JOINT LeftFinger11
                  {
                    OFFSET -0.8272 -3.3923 0.5977
                    CHANNELS 6 Xposition Yposition Zposition Zrotation Xrotation Yrotation
                    JOINT LeftFinger12
                    {
                      OFFSET -0.5649 -2.3158 0.4082
                      CHANNELS 6 Xposition Yposition Zposition Zrotation Xrotation Yrotation
                      End Site
                      {
                        OFFSET -0.4919 -1.6479 0.2673
                      }
                    }
                  }
                }
                JOINT LeftFinger2
                {
                  OFFSET 0.9159 -9.2044 0.2193
                  CHANNELS 6 Xposition Yposition Zposition Zrotation Xrotation Yrotation
                  JOINT LeftFinger21
                  {
                    OFFSET 0.0117 -4.1944 -0.0248
                    CHANNELS 6 Xposition Yposition Zposition Zrotation Xrotation Yrotation
                    JOINT LeftFinger22
                    {
                      OFFSET 0.0071 -2.3249 -0.0142
                      CHANNELS 6 Xposition Yposition Zposition Zrotation Xrotation Yrotation
                      End Site
                      {
                        OFFSET -0.1475 -2.0882 0.0028
                      }
                    }
                  }
                }
                JOINT LeftFinger3
                {
                  OFFSET 0.6113 -8.7231 -2.0637
                  CHANNELS 6 Xposition Yposition Zposition Zrotation Xrotation Yrotation
                  JOINT LeftFinger31
                  {
                    OFFSET -0.1927 -3.8059 -0.2383
                    CHANNELS 6 Xposition Yposition Zposition Zrotation Xrotation Yrotation
                    JOINT LeftFinger32
                    {
                      OFFSET -0.1091 -2.1688 -0.1362
                      CHANNELS 6 Xposition Yposition Zposition Zrotation Xrotation Yrotation
                      End Site
                      {
                        OFFSET -0.2358 -1.9176 -0.0906
                      }
                    }
                  }
                }
                JOINT LeftFinger4
                {
                  OFFSET -0.6151 -8.0947 -3.5641
                  CHANNELS 6 Xposition Yposition Zposition Zrotation Xrotation Yrotation
                  JOINT LeftFinger41
                  {
                    OFFSET -0.4882 -2.341 -0.6462
                    CHANNELS 6 Xposition Yposition Zposition Zrotation Xrotation Yrotation
                    JOINT LeftFinger42
                    {
                      OFFSET -0.3575 -1.7167 -0.4742
                      CHANNELS 6 Xposition Yposition Zposition Zrotation Xrotation Yrotation
                      End Site
                      {
                        OFFSET -0.4187 -1.5237 -0.3496
                      }
                    }
                  }
                }
                JOINT LeftFinger0
                {
                  OFFSET -1.42 -1.8761 1.4223
                  CHANNELS 6 Xposition Yposition Zposition Zrotation Xrotation Yrotation
                  JOINT LeftFinger01
                  {
                    OFFSET -1.1471 -3.4929 2.6334
                    CHANNELS 6 Xposition Yposition Zposition Zrotation Xrotation Yrotation
                    JOINT LeftFinger02
                    {
                      OFFSET -0.823 -2.3 1.6571
                      CHANNELS 6 Xposition Yposition Zposition Zrotation Xrotation Yrotation
                      End Site
                      {
                        OFFSET -0.5822 -1.6914 1.1582
                      }
                    }
                  }
                }
              }
            }
          }
        }
        JOINT RightCollar
        {
          OFFSET -2.2603 21.606 7.4023
          CHANNELS 6 Xposition Yposition Zposition Zrotation Xrotation Yrotation
          JOINT RightShoulder
          {
            OFFSET -13.5187 -1.1334 -5.0155
            CHANNELS 6 Xposition Yposition Zposition Zrotation Xrotation Yrotation
            JOINT RightElbow
            {
              OFFSET 0.0994 -28.0499 -0.2431
              CHANNELS 6 Xposition Yposition Zposition Zrotation Xrotation Yrotation
              JOINT RightWrist
              {
                OFFSET -0.0679 -23.3996 -0.1402
                CHANNELS 6 Xposition Yposition Zposition Zrotation Xrotation Yrotation
                JOINT RightFinger1
                {
                  OFFSET -0.7932 -9.0691 2.5189
                  CHANNELS 6 Xposition Yposition Zposition Zrotation Xrotation Yrotation
                  JOINT RightFinger11
                  {
                    OFFSET 0.8272 -3.3923 0.5977
                    CHANNELS 6 Xposition Yposition Zposition Zrotation Xrotation Yrotation
                    JOINT RightFinger12
                    {
                      OFFSET 0.565 -2.3158 0.4082
                      CHANNELS 6 Xposition Yposition Zposition Zrotation Xrotation Yrotation
                      End Site
                      {
                        OFFSET 0.4919 -1.6479 0.2673
                      }
                    }
                  }
                }
                JOINT RightFinger2
                {
                  OFFSET -0.916 -9.2044 0.2193
                  CHANNELS 6 Xposition Yposition Zposition Zrotation Xrotation Yrotation
                  JOINT RightFinger21
                  {
                    OFFSET -0.0117 -4.1944 -0.0248
                    CHANNELS 6 Xposition Yposition Zposition Zrotation Xrotation Yrotation
                    JOINT RightFinger22
                    {
                      OFFSET -0.0071 -2.3249 -0.0142
                      CHANNELS 6 Xposition Yposition Zposition Zrotation Xrotation Yrotation
                      End Site
                      {
                        OFFSET 0.1475 -2.0882 0.0028
                      }
                    }
                  }
                }
                JOINT RightFinger3
                {
                  OFFSET -0.6113 -8.7231 -2.0637
                  CHANNELS 6 Xposition Yposition Zposition Zrotation Xrotation Yrotation
                  JOINT RightFinger31
                  {
                    OFFSET 0.1927 -3.8059 -0.2383
                    CHANNELS 6 Xposition Yposition Zposition Zrotation Xrotation Yrotation
                    JOINT RightFinger32
                    {
                      OFFSET 0.1091 -2.1688 -0.1362
                      CHANNELS 6 Xposition Yposition Zposition Zrotation Xrotation Yrotation
                      End Site
                      {
                        OFFSET 0.2358 -1.9176 -0.0906
                      }
                    }
                  }
                }
                JOINT RightFinger4
                {
                  OFFSET 0.6151 -8.0947 -3.564
                  CHANNELS 6 Xposition Yposition Zposition Zrotation Xrotation Yrotation
                  JOINT RightFinger41
                  {
                    OFFSET 0.4882 -2.341 -0.6462
                    CHANNELS 6 Xposition Yposition Zposition Zrotation Xrotation Yrotation
                    JOINT RightFinger42
                    {
                      OFFSET 0.3574 -1.7166 -0.4742
                      CHANNELS 6 Xposition Yposition Zposition Zrotation Xrotation Yrotation
                      End Site
                      {
                        OFFSET 0.4187 -1.5237 -0.3496
                      }
                    }
                  }
                }
                JOINT RightFinger0
                {
                  OFFSET 1.4199 -1.8761 1.4221
                  CHANNELS 6 Xposition Yposition Zposition Zrotation Xrotation Yrotation
                  JOINT RightFinger01
                  {
                    OFFSET 1.1472 -3.4929 2.6336
                    CHANNELS 6 Xposition Yposition Zposition Zrotation Xrotation Yrotation
                    JOINT RightFinger02
                    {
                      OFFSET 0.8229 -2.3 1.6571
                      CHANNELS 6 Xposition Yposition Zposition Zrotation Xrotation Yrotation
                      End Site
                      {
                        OFFSET 0.5822 -1.6914 1.1582
                      }
                    }
                  }
                }
              }
            }
          }
        }
      }
    }
  }
  JOINT RightHip
  {
    OFFSET -9.412 3.9771 -0.7758
    CHANNELS 6 Xposition Yposition Zposition Zrotation Xrotation Yrotation
    JOINT RightKnee
    {
      OFFSET -0.7531 -40.938 0
      CHANNELS 6 Xposition Yposition Zposition Zrotation Xrotation Yrotation
      JOINT RightAnkle
      {
        OFFSET 0 -40.1986 0
        CHANNELS 6 Xposition Yposition Zposition Zrotation Xrotation Yrotation
        JOINT RightToe
        {
          OFFSET 0 -4.4182 9.239
          CHANNELS 6 Xposition Yposition Zposition Zrotation Xrotation Yrotation
          End Site
          {
            OFFSET 0 0 6.1981
          }
        }
      }
    }
  }
  JOINT LeftHip
  {
    OFFSET 9.4119 3.9773 -0.7758
    CHANNELS 6 Xposition Yposition Zposition Zrotation Xrotation Yrotation
    JOINT LeftKnee
    {
      OFFSET 0.7532 -40.9383 0
      CHANNELS 6 Xposition Yposition Zposition Zrotation Xrotation Yrotation
      JOINT LeftAnkle
      {
        OFFSET 0 -40.1986 0
        CHANNELS 6 Xposition Yposition Zposition Zrotation Xrotation Yrotation
        JOINT LeftToe
        {
          OFFSET 0 -4.4182 9.239
          CHANNELS 6 Xposition Yposition Zposition Zrotation Xrotation Yrotation
          End Site
          {
            OFFSET 0 0 6.1981
          }
        }
      }
    }
  }
}
MOTION
Frames:	4
Frame Time:	0.0333333
5.72205e-005 65.662 3.42586 0 0 -0 0 8.7983 -4.7612 0 0 -0 0 8.0291 0.4195 0 0 -0 0 9.9351 -2.2114 0 0 -0 0 22.3885 -0.4656 0 0 -0 -0.0001 12.643 3.4389 0 0 -0 2.2603 21.606 7.4023 0 0 -12.5014 13.5163 -1.1332 -5.0146 88.1196 14.2451 10.6914 -0.0995 -28.05 -0.2431 -0.00160068 -0.00239207 0.000740045 0.0679 -23.3996 -0.1402 -8.4365e-005 7.00714e-005 -9.52055e-007 0.7932 -9.069 2.5189 9.93923e-017 -1.98785e-016 -1.59028e-015 -0.8272 -3.3923 0.5977 9.93923e-017 -5.96354e-016 -1.59028e-015 -0.5649 -2.3158 0.4082 -9.93923e-017 -5.96354e-016 -1.59028e-015 0.9159 -9.2044 0.2193 9.93923e-017 -1.98785e-016 -1.59028e-015 0.0117 -4.1944 -0.0248 -0.0128176 0.00232552 8.52707e-005 0.0071 -2.3249 -0.0142 9.93923e-017 5.96354e-016 -0 0.6113 -8.7231 -2.0637 9.93923e-017 -1.98785e-016 -1.59028e-015 -0.1927 -3.8059 -0.2383 -0.0160551 0.00299681 0.000857156 -0.1091 -2.1688 -0.1362 -2.48481e-016 0 3.18055e-015 -0.6151 -8.0947 -3.5641 9.93923e-017 -1.98785e-016 -1.59028e-015 -0.4882 -2.341 -0.6462 -0.0125865 0.0031206 0.00282719 -0.3575 -1.7167 -0.4742 0 1.98785e-016 -0 -1.42 -1.8761 1.4223 9.93923e-017 -1.98785e-016 -1.59028e-015 -1.1471 -3.4929 2.6334 9.93923e-017 -5.96354e-016 -1.59028e-015 -0.823 -2.3 1.6571 -9.93923e-017 -5.96354e-016 -1.59028e-015 -2.2603 21.606 7.4023 -0.865644 0.16582 7.03859 -13.5187 -1.1334 -5.0155 -88.0329 10.2057 -10.5567 0.0994 -28.0499 -0.2431 0.0015593 -0.00248883 -0.000788628 -0.0679 -23.3996 -0.1402 7.87605e-005 4.10553e-005 1.24965e-005 -0.7932 -9.0691 2.5189 -3.97569e-016 -7.95139e-016 3.18055e-015 0.8272 -3.3923 0.5977 -1.98785e-016 -3.97569e-016 3.18055e-015 0.565 -2.3158 0.4082 -1.98785e-016 0 3.18055e-015 -0.916 -9.2044 0.2193 -3.97569e-016 -7.95139e-016 3.18055e-015 -0.0117 -4.1944 -0.0248 0.0129473 0.00231697 -8.70038e-005 -0.0071 -2.3249 -0.0142 9.93923e-017 -7.95139e-016 1.59028e-015 -0.6113 -8.7231 -2.0637 -3.97569e-016 -7.95139e-016 3.18055e-015 0.1927 -3.8059 -0.2383 0.0163314 0.00303369 -0.000872333 0.1091 -2.1688 -0.1362 3.97569e-016 7.95139e-016 -3.18055e-015 0.6151 -8.0947 -3.564 -3.97569e-016 -7.95139e-016 3.18055e-015 0.4882 -2.341 -0.6462 0.0145763 0.00367772 -0.00326275 0.3574 -1.7166 -0.4742 9.93923e-017 -3.97569e-016 -0 1.4199 -1.8761 1.4221 -3.97569e-016 -7.95139e-016 3.18055e-015 1.1472 -3.4929 2.6336 -1.98785e-016 -3.97569e-016 3.18055e-015 0.8229 -2.3 1.6571 -1.98785e-016 0 3.18055e-015 -9.412 3.9771 -0.7758 3.42482 1.32465 -0.0626183 -0.7531 -40.938 0 0.000117508 0.717283 0.000978199 0 -40.1986 0 -3.4257 -2.04197 -0.0604716 8.88178e-016 -4.4182 9.239 6.47761e-025 0 -0 9.4119 3.9773 -0.7758 -3.42483 1.34017 0.0627307 0.7532 -40.9383 -2.22045e-016 -0.000193936 0.682302 -0.0013703 -8.88179e-016 -40.1986 0 3.42574 -2.02253 0.0595886 -8.88178e-016 -4.4182 9.239 -8.45714e-024 0 -7.40531e-025 
-0.000142965 7.40811 62.3976 180 -85.9956 180 0 8.7983 -4.7612 -0.0395799 0.646169 -0.100816 -6.93889e-018 8.0291 0.4195 -0.07803 1.29243 -0.201204 0 9.9351 -2.2114 -0.0780299 1.29242 -0.201204 2.77556e-017 22.3885 -0.4656 1.70302e-006 25.998 -2.06607e-005 -0.0001 12.643 3.4389 2.03653e-007 4.99719 -5.73505e-009 2.2603 21.606 7.4023 -0.207405 -9.09158 -13.6317 13.5163 -1.1332 -5.0146 109.92 -60.4142 31.51 -0.0995 -28.05 -0.2431 -11.6048 -30.0592 25.3906 0.0679 -23.3996 -0.1402 -14.2894 7.69117 48.4776 0.7932 -9.069 2.5189 1.98785e-015 1.72043e-006 2.38542e-015 -0.8272 -3.3923 0.5977 -1.60279e-008 8.59713e-007 8.46852e-007 -0.5649 -2.3158 0.4082 1.60279e-008 5.39435e-007 -8.46852e-007 0.9159 -9.2044 0.2193 1.98785e-015 1.72043e-006 2.38542e-015 0.0117 -4.1944 -0.0248 -0.0127582 0.0023174 8.92939e-005 0.0071 -2.3249 -0.0142 3.21722e-008 3.26742e-007 -1.6937e-006 0.6113 -8.7231 -2.0637 1.98785e-015 1.72043e-006 2.38542e-015 -0.1927 -3.8059 -0.2383 -0.0160498 0.0029966 0.000860901 -0.1091 -2.1688 -0.1362 8.02127e-006 7.40642e-008 -9.32746e-007 -0.6151 -8.0947 -3.5641 1.98785e-015 1.72043e-006 2.38542e-015 -0.4882 -2.341 -0.6462 -0.0125798 0.00312101 0.0028281 -0.3575 -1.7167 -0.4742 5.26779e-015 7.53248e-007 7.95139e-016 -1.42 -1.8761 1.4223 1.98785e-015 1.72043e-006 2.38542e-015 -1.1471 -3.4929 2.6334 -1.60279e-008 8.59713e-007 8.46852e-007 -0.823 -2.3 1.6571 1.60279e-008 5.39435e-007 -8.46852e-007 -2.2603 21.606 7.4023 -0.675848 -8.9418 8.02602 -13.5187 -1.1334 -5.0155 -113.205 -63.6499 -36.107 0.0994 -28.0499 -0.2431 12.1789 -29.9646 -25.2614 -0.0679 -23.3996 -0.1402 15.5413 8.03319 -48.185 -0.7932 -9.0691 2.5189 2.83268e-015 -1.28892e-006 1.59028e-015 0.8272 -3.3923 0.5977 3.42904e-015 1.19271e-015 3.18055e-015 0.565 -2.3158 0.4082 -3.45651e-008 -2.15304e-006 8.4538e-007 -0.916 -9.2044 0.2193 2.83268e-015 -1.28892e-006 1.59028e-015 -0.0117 -4.1944 -0.0248 0.0129477 0.00231695 -8.66989e-005 -0.0071 -2.3249 -0.0142 -3.46252e-008 -2.15303e-006 8.45379e-007 -0.6113 -8.7231 -2.0637 2.83268e-015 -1.28892e-006 1.59028e-015 0.1927 -3.8059 -0.2383 0.0163584 0.00303621 -0.000873186 0.1091 -2.1688 -0.1362 -8.13634e-006 -1.51286e-006 8.77509e-007 0.6151 -8.0947 -3.564 2.83268e-015 -1.28892e-006 1.59028e-015 0.4882 -2.341 -0.6462 0.0145912 0.00367996 -0.00326299 0.3574 -1.7166 -0.4742 3.17141e-006 -1.63706e-006 1.678e-006 1.4199 -1.8761 1.4221 2.83268e-015 -1.28892e-006 1.59028e-015 1.1472 -3.4929 2.6336 3.42904e-015 1.19271e-015 3.18055e-015 0.8229 -2.3 1.6571 -3.45651e-008 -2.15304e-006 8.4538e-007 -9.412 3.9771 -0.7758 -90.1842 -53.2513 -120.174 -0.7531 -40.938 -7.10543e-015 11.3832 0.0346011 8.31108 0 -40.1986 7.10543e-015 -14.6465 7.49632 17.9658 8.88178e-015 -4.4182 9.239 -2.56121e-008 4.26798e-007 4.23319e-007 9.4119 3.9773 -0.7758 90.1272 -53.2734 120.125 0.7532 -40.9383 -7.10543e-015 -11.3927 -0.0400473 -8.32618 0 -40.1986 0 14.6418 7.53508 -17.972 0 -4.4182 9.239 -1.12681e-005 2.5131e-006 -1.9264e-006 
-0.000145793 7.3686 62.414 180 -85.9956 180 0 8.7983 -4.7612 -0.040048 0.801644 -0.10056 6.93889e-018 8.0291 0.4195 -0.0786996 1.60344 -0.200587 -1.38778e-017 9.9351 -2.2114 -0.0786996 1.60341 -0.200587 0 22.3885 -0.4656 -8.33968e-007 23.9191 2.21234e-005 -0.0001 12.643 3.4389 1.03033e-007 2.81291 -2.14092e-008 2.2603 21.606 7.4023 -0.424432 -9.79325 -12.5863 13.5163 -1.1332 -5.0146 109.823 -60.5542 31.4371 -0.0995 -28.05 -0.2431 -12.191 -31.9352 24.9035 0.0679 -23.3996 -0.1402 -13.5687 8.26451 48.7379 0.7932 -9.069 2.5189 1.76421e-015 8.59591e-007 -0 -0.8272 -3.3923 0.5977 2.73329e-016 1.98785e-016 7.95139e-016 -0.5649 -2.3158 0.4082 2.26104e-008 1.18689e-006 -1.27059e-006 0.9159 -9.2044 0.2193 1.76421e-015 8.59591e-007 -0 0.0117 -4.1944 -0.0248 -0.0128053 0.00232243 8.19432e-005 0.0071 -2.3249 -0.0142 8.44835e-016 -1.78906e-015 7.95139e-016 0.6113 -8.7231 -2.0637 1.76421e-015 8.59591e-007 -0 -0.1927 -3.8059 -0.2383 -0.0160728 0.00300382 0.000859867 -0.1091 -2.1688 -0.1362 -3.97213e-006 -2.65189e-007 -2.59648e-006 -0.6151 -8.0947 -3.5641 1.76421e-015 8.59591e-007 -0 -0.4882 -2.341 -0.6462 -0.0125918 0.00312121 0.00282567 -0.3575 -1.7167 -0.4742 -5.11871e-015 7.52133e-007 -0 -1.42 -1.8761 1.4223 1.76421e-015 8.59591e-007 -0 -1.1471 -3.4929 2.6334 2.73329e-016 1.98785e-016 7.95139e-016 -0.823 -2.3 1.6571 2.26104e-008 1.18689e-006 -1.27059e-006 -2.2603 21.606 7.4023 -0.455622 -9.62349 6.95203 -13.5187 -1.1334 -5.0155 -113.655 -63.9017 -36.5245 0.0994 -28.0499 -0.2431 12.8544 -31.6207 -24.8329 -0.0679 -23.3996 -0.1402 14.8282 8.58869 -48.4689 -0.7932 -9.0691 2.5189 -6.48117e-006 -6.93827e-007 2.99616e-008 0.8272 -3.3923 0.5977 -2.03754e-015 3.97569e-016 -0 0.565 -2.3158 0.4082 -5.11871e-015 0 -0 -0.916 -9.2044 0.2193 -6.48117e-006 -6.93827e-007 2.99616e-008 -0.0117 -4.1944 -0.0248 0.0129724 0.00231944 -8.81473e-005 -0.0071 -2.3249 -0.0142 3.8763e-015 7.95139e-016 -1.59028e-015 -0.6113 -8.7231 -2.0637 -6.48117e-006 -6.93827e-007 2.99616e-008 0.1927 -3.8059 -0.2383 0.0163117 0.00302849 -0.000871771 0.1091 -2.1688 -0.1362 -5.46658e-016 -1.19271e-015 -3.18055e-015 0.6151 -8.0947 -3.564 -6.48117e-006 -6.93827e-007 2.99616e-008 0.4882 -2.341 -0.6462 0.0145507 0.00367105 -0.00325675 0.3574 -1.7166 -0.4742 4.47266e-016 0 -0 1.4199 -1.8761 1.4221 -6.48117e-006 -6.93827e-007 2.99616e-008 1.1472 -3.4929 2.6336 -2.03754e-015 3.97569e-016 -0 0.8229 -2.3 1.6571 -5.11871e-015 0 -0 -9.412 3.9771 -0.7758 -90.2481 -52.942 -120.249 -0.7531 -40.938 0 10.8243 0.379564 8.36895 0 -40.1986 0 -14.5964 7.89278 17.9346 -2.66454e-015 -4.4182 9.239 1.90496e-005 4.92411e-007 2.55682e-006 9.4119 3.9773 -0.7758 89.9543 -53.0506 119.997 0.7532 -40.9383 1.42109e-014 -10.8281 -0.030407 -8.43358 0 -40.1986 -7.10543e-015 14.5656 8.10034 -17.9514 1.15463e-014 -4.4182 9.239 -5.37823e-006 2.89269e-007 7.24388e-008 
-0.000140915 7.32925 62.4301 -180 -85.9956 -180 2.71051e-020 8.7983 -4.7612 -0.0405099 0.957089 -0.100285 -6.9389e-018 8.0291 0.4195 -0.0793601 1.91424 -0.199933 0 9.9351 -2.2114 -0.0793601 1.91422 -0.199933 0 22.3885 -0.4656 -1.58394e-007 21.8295 -2.00593e-005 -0.0001 12.643 3.4389 -2.13726e-007 0.615491 2.67159e-008 2.2603 21.606 7.4023 -0.629348 -10.4996 -11.5392 13.5163 -1.1332 -5.0146 110.186 -60.8232 31.7654 -0.0995001 -28.05 -0.2431 -12.9057 -33.5894 24.4359 0.0679 -23.3996 -0.1402 -12.8488 8.84169 48.9917 0.7932 -9.069 2.5189 -4.81214e-006 1.56692e-007 1.92558e-006 -0.827201 -3.3923 0.5977 -3.17711e-006 3.99555e-006 -1.17729e-006 -0.5649 -2.3158 0.4082 3.17711e-006 2.56341e-006 1.17729e-006 0.915901 -9.2044 0.2193 -4.81214e-006 1.56692e-007 1.92558e-006 0.0117 -4.1944 -0.0248 -0.0128653 0.00233586 8.29992e-005 0.00710001 -2.3249 -0.0142 -4.64659e-015 1.7207e-006 -7.95139e-016 0.6113 -8.7231 -2.0637 -4.81214e-006 1.56692e-007 1.92558e-006 -0.1927 -3.8059 -0.2383 -0.0160456 0.0029996 0.00085722 -0.1091 -2.1688 -0.1362 1.60273e-006 2.43904e-006 8.91078e-007 -0.6151 -8.0947 -3.5641 -4.81214e-006 1.56692e-007 1.92558e-006 -0.4882 -2.341 -0.6462 -0.0125728 0.0031185 0.00282008 -0.3575 -1.7167 -0.4742 7.13296e-009 1.71982e-006 -4.23622e-007 -1.42 -1.8761 1.4223 -4.81214e-006 1.56692e-007 1.92558e-006 -1.1471 -3.4929 2.6334 -3.17711e-006 3.99555e-006 -1.17729e-006 -0.823001 -2.3 1.6571 3.17711e-006 2.56341e-006 1.17729e-006 -2.2603 21.606 7.4023 -0.247565 -10.31 5.87607 -13.5187 -1.1334 -5.0155 -114.129 -64.1551 -36.9653 0.0994 -28.0499 -0.2431 13.5627 -33.2719 -24.3732 -0.0679 -23.3996 -0.1402 14.1159 9.14827 -48.7465 -0.793201 -9.0691 2.5189 -3.27106e-008 8.63579e-007 8.45833e-007 0.827201 -3.3923 0.5977 7.11043e-006 5.77396e-007 -5.0573e-007 0.565 -2.3158 0.4082 -5.93631e-006 1.02622e-006 -1.00325e-006 -0.916001 -9.2044 0.2193 -3.27106e-008 8.63579e-007 8.45833e-007 -0.0117 -4.1944 -0.0248 0.0129328 0.00231589 -8.6649e-005 -0.0071 -2.3249 -0.0142 -3.277e-008 8.63581e-007 8.45832e-007 -0.6113 -8.7231 -2.0637 -3.27106e-008 8.63579e-007 8.45833e-007 0.1927 -3.8059 -0.2383 0.0163203 0.00303685 -0.000872092 0.1091 -2.1688 -0.1362 -1.49088e-016 4.29533e-007 -4.77083e-015 0.6151 -8.0947 -3.564 -3.27106e-008 8.63579e-007 8.45833e-007 0.4882 -2.341 -0.6462 0.014553 0.00367218 -0.00325494 0.3574 -1.7166 -0.4742 3.74763e-006 3.98114e-007 -2.06834e-007 1.4199 -1.8761 1.4221 -3.27106e-008 8.63579e-007 8.45833e-007 1.1472 -3.4929 2.6336 7.11043e-006 5.77396e-007 -5.0573e-007 0.8229 -2.3 1.6571 -5.93631e-006 1.02622e-006 -1.00325e-006 -9.412 3.9771 -0.7758 -89.7911 -52.816 -119.887 -0.7531 -40.938 0 10.2633 -0.00602291 8.53402 0 -40.1986 0 -14.495 8.6597 17.9332 -4.44089e-015 -4.4182 9.239 1.9596e-005 1.9667e-006 3.1202e-006 9.4119 3.9773 -0.7758 89.8147 -52.817 119.906 0.7532 -40.9383 0 -10.2624 0.0267879 -8.53289 0 -40.1986 -7.10543e-015 14.4926 8.64145 -17.9355 1.77636e-015 -4.4182 9.239 7.76315e-008 -1.12376e-008 -8.44768e-007 
